<?xml version="1.0" encoding="UTF-8" standalone="no"?>
<svg
   xmlns:dc="http://purl.org/dc/elements/1.1/"
   xmlns:cc="http://creativecommons.org/ns#"
   xmlns:rdf="http://www.w3.org/1999/02/22-rdf-syntax-ns#"
   xmlns:svg="http://www.w3.org/2000/svg"
   xmlns="http://www.w3.org/2000/svg"
   xmlns:sodipodi="http://sodipodi.sourceforge.net/DTD/sodipodi-0.dtd"
   xmlns:inkscape="http://www.inkscape.org/namespaces/inkscape"
   aria-hidden="true"
   focusable="false"
   data-prefix="far"
   data-icon="user"
   class="svg-inline--fa fa-user fa-w-14"
   role="img"
   viewBox="0 0 448 512"
   version="1.1"
   id="svg3736"
   sodipodi:docname="social_icon.svg"
   inkscape:version="0.92.4 (5da689c313, 2019-01-14)">
  <metadata
     id="metadata3742">
    <rdf:RDF>
      <cc:Work
         rdf:about="">
        <dc:format>image/svg+xml</dc:format>
        <dc:type
           rdf:resource="http://purl.org/dc/dcmitype/StillImage" />
      </cc:Work>
    </rdf:RDF>
  </metadata>
  <defs
     id="defs3740" />
  <sodipodi:namedview
     pagecolor="#ffffff"
     bordercolor="#666666"
     borderopacity="1"
     objecttolerance="10"
     gridtolerance="10"
     guidetolerance="10"
     inkscape:pageopacity="0"
     inkscape:pageshadow="2"
     inkscape:window-width="732"
     inkscape:window-height="480"
     id="namedview3738"
     showgrid="false"
     inkscape:zoom="0.4609375"
     inkscape:cx="224"
     inkscape:cy="256"
     inkscape:window-x="0"
     inkscape:window-y="0"
     inkscape:window-maximized="0"
     inkscape:current-layer="svg3736" />
  <path
     d="m 226.975,257.59375 c -0.95293,0 -1.41113,0.53125 -2.975,0.53125 -1.56387,0 -2.01875,-0.53125 -2.975,-0.53125 -2.46367,0 -4.4625,1.99883 -4.4625,4.4625 v 0.85 c 0,0.87988 0.71387,1.59375 1.59375,1.59375 h 11.6875 c 0.87988,0 1.59375,-0.71387 1.59375,-1.59375 v -0.85 c 0,-2.46367 -1.99883,-4.4625 -4.4625,-4.4625 z m 2.86875,5.3125 h -11.6875 v -0.85 c 0,-1.58047 1.28828,-2.86875 2.86875,-2.86875 0.48477,0 1.27168,0.53125 2.975,0.53125 1.7166,0 2.48691,-0.53125 2.975,-0.53125 1.58047,0 2.86875,1.28828 2.86875,2.86875 z M 224,257.0625 c 2.63965,0 4.78125,-2.1416 4.78125,-4.78125 0,-2.63965 -2.1416,-4.78125 -4.78125,-4.78125 -2.63965,0 -4.78125,2.1416 -4.78125,4.78125 0,2.63965 2.1416,4.78125 4.78125,4.78125 z m 0,-7.96875 c 1.75645,0 3.1875,1.43105 3.1875,3.1875 0,1.75645 -1.43105,3.1875 -3.1875,3.1875 -1.75645,0 -3.1875,-1.43105 -3.1875,-3.1875 0,-1.75645 1.43105,-3.1875 3.1875,-3.1875 z"
     id="path3734"
     style="fill:#8583e1;fill-opacity:1;fill-rule:nonzero;stroke-width:0.03320312"
     inkscape:connector-curvature="0"
     inkscape:export-xdpi="96"
     inkscape:export-ydpi="96" />
</svg>
